#N canvas 364 390 450 300 10;
#X obj 223 256 netsend -u;
#X msg 223 194 connect localhost 9999;
#X obj 15 71 list prepend send;
#X obj 15 93 list trim;
#X obj 223 168 loadbang;
#X obj 15 19 inlet;
#X obj 15 41 t a b;
#X connect 1 0 0 0;
#X connect 2 0 3 0;
#X connect 3 0 0 0;
#X connect 4 0 1 0;
#X connect 5 0 6 0;
#X connect 6 0 2 0;
#X connect 6 1 1 0;
